<svg width="20" height="20" viewBox="0 0 20 20" fill="none" xmlns="http://www.w3.org/2000/svg">
<path d="M14.2084 16.9C13.3918 17.6917 12.5001 18.1083 11.5168 18.1083C10.5334 18.1083 9.80843 17.7417 8.90843 17.7417C8.0001 17.7417 7.09176 18.1167 6.3001 18.1167C5.31676 18.1167 4.4251 17.6 3.53343 16.7583C1.71676 14.9833 1.26676 11.625 2.6001 9.675C3.53343 8.31667 4.80843 7.74167 5.93343 7.74167C6.7251 7.74167 7.55843 8.09167 8.14176 8.09167C8.73343 8.09167 9.55843 7.74167 10.3751 7.74167C11.5834 7.74167 12.7501 8.39167 13.3751 9.39167C11.1918 10.5833 11.5418 13.2833 13.7501 14.2417C13.2501 15.3667 12.5668 16.5333 11.7084 16.9H14.2084ZM10.0251 6.04167C9.9251 4.29167 11.4418 2.6 13.0251 2.5C13.2334 4.275 11.4584 5.91667 10.0251 6.04167Z" fill="#1A1B1F"/>
</svg>
